<?xml version="1.0" encoding="UTF-8" standalone="no"?>
<svg
   xmlns:dc="http://purl.org/dc/elements/1.1/"
   xmlns:cc="http://creativecommons.org/ns#"
   xmlns:rdf="http://www.w3.org/1999/02/22-rdf-syntax-ns#"
   xmlns:svg="http://www.w3.org/2000/svg"
   xmlns="http://www.w3.org/2000/svg"
   version="1.1"
   id="svg2"
   height="20"
   width="120">
  <metadata
     id="metadata34">
    <rdf:RDF>
      <cc:Work
         rdf:about="">
        <dc:format>image/svg+xml</dc:format>
        <dc:type
           rdf:resource="http://purl.org/dc/dcmitype/StillImage" />
        <dc:title></dc:title>
      </cc:Work>
    </rdf:RDF>
  </metadata>
  <defs
     id="defs32" />
  <linearGradient
     gradientUnits="userSpaceOnUse"
     y1="0"
     x1="0"
     gradientTransform="matrix(2.3664319,0,0,0.42257713,0,-20)"
     y2="47.328638"
     x2="0"
     id="b">
    <stop
       id="stop5"
       stop-opacity=".1"
       stop-color="#bbb"
       offset="0" />
    <stop
       id="stop7"
       stop-opacity=".1"
       offset="1" />
  </linearGradient>
  <clipPath
     id="a">
    <rect
       id="rect10"
       fill="#fff"
       rx="3"
       height="20"
       width="120" />
  </clipPath>
  <g
     id="g12"
     clip-path="url(#a)">
    <path
       style="fill:#2d3c49;fill-opacity:1"
       id="path14"
       d="M 0,0 60,0 60,20 0,20 Z" />
    <path
       style="fill:#02b3e4;fill-opacity:1"
       id="path16"
       d="m 60,0 60,0 0,20 -60,0 z" />
  </g>
  <g
     id="g20"
     font-size="11"
     font-family="Open Sans,sans-serif"
     text-anchor="middle"
     fill="#fff">
    <text
       style="fill:#010101;fill-opacity:0.3"
       id="text22"
       y="15"
       x="39.5">Udacity</text>
    <text
       id="text24"
       y="14"
       x="39.5">Udacity</text>
    <text
       id="text26"
       fill-opacity=".3"
       fill="#010101"
       y="15"
       x="88.5">Blockchain</text>
    <text
       id="text28"
       y="14"
       x="88.5">Blockchain</text>
    <path
       id="mark_7_"
       class="st3"
       d="M 8.0064385,4.000004 4,6.2968 l 0.00245,5.290339 0,0 c -0.00733,2.429769 1.9564564,4.405414 4.3863226,4.41284 0.8034395,0.0025 1.5572188,-0.2106 2.2066654,-0.584775 l 0,0 3.243807,-1.863669 c 1.279625,-0.6639 2.15566,-1.998972 2.160306,-3.540295 L 16,4.486153 l 0,0 0,0 -0.79383,-0.464249 -3.256327,1.837721 0.0025,5.751813 c -7.61e-4,0.244725 -0.02617,0.489074 -0.07543,0.726073 -0.04792,0.230624 -0.119076,0.457348 -0.211428,0.673949 -0.02396,0.05603 -0.04939,0.111602 -0.07617,0.1665 -0.09671,-0.011 -0.121158,-0.01605 -0.268745,-0.04373 -0.210405,-0.04335 -0.627504,-0.162229 -1.129572,-0.486753 C 10.0217,12.532359 9.8626201,12.400282 9.7180041,12.254858 9.573474,12.109433 9.4422938,11.949533 9.3282165,11.779584 9.2131742,11.608209 9.1145384,11.425135 9.0349621,11.23546 8.9540301,11.042486 8.8919968,10.840586 8.8506743,10.635386 8.8081316,10.424411 8.7987193,10.207061 8.799331,9.989488 l 1.464e-4,0 0.00247,-5.524939 L 8.0059364,4 Z m 1.7676686,10.921777 c -0.217211,0.09105 -0.4443129,0.1608 -0.6752536,0.207375 -0.2373104,0.04785 -0.4560132,0.07171 -0.7007567,0.07096 -0.2447316,-7.5e-4 -0.4890844,-0.02611 -0.726101,-0.07539 C 7.4413607,15.076808 7.2146255,15.005707 6.9980252,14.913306 6.785166,14.822483 6.5798865,14.710281 6.3878719,14.579707 6.1974343,14.450257 6.0184889,14.301682 5.8558767,14.138033 5.6932646,13.974459 5.5457386,13.794609 5.4174803,13.603433 5.2881095,13.410609 5.1771014,13.20466 5.0876224,12.991284 c -0.09108,-0.217123 -0.160876,-0.444298 -0.207382,-0.675223 -0.047802,-0.2373 -0.056604,-0.481798 -0.055749,-0.726522 l -3.669e-4,-4.82864 3.1504173,-1.837422 0.00247,5.063389 -1.464e-4,0 c -0.00612,1.923971 1.3360208,3.534743 3.1449396,3.922792 -0.07091,0.08467 -0.122133,0.166125 -0.200328,0.243825 -0.163578,0.162599 -0.34344,0.310049 -0.534624,0.438374 -0.192833,0.12945 -0.3987852,0.240374 -0.6121701,0.329924 z m 5.3372889,-4.26749 c -0.04267,0.204973 -0.105874,0.406498 -0.187956,0.598948 -0.08068,0.189149 -0.180461,0.371624 -0.296568,0.542323 -0.115164,0.169276 -0.247212,0.328351 -0.392636,0.47295 -0.145435,0.144524 -0.305345,0.275699 -0.475294,0.389774 -0.171389,0.114976 -0.354467,0.213673 -0.544147,0.293174 -0.212786,0.09187 -0.394897,0.142951 -0.600103,0.184274 -0.04145,0.0083 -0.104039,0.01583 -0.145949,0.0225 0.181721,-0.479924 0.304135,-0.999898 0.305933,-1.543273 l 0,0 9.77e-4,-5.291239 7.3e-5,0 2.399046,-1.378198 0,5.063242 c -6.82e-4,0.217647 -0.01968,0.434847 -0.06333,0.645523 z"
       style="fill:#02b3e4" />
  </g>
</svg>
